<svg width="72" height="72" xmlns="http://www.w3.org/2000/svg" style="vector-effect: non-scaling-stroke;" stroke="null">
 <g stroke="null">
  <title stroke="null">Layer 1</title>
  <text font-weight="bold" stroke="#000" font-style="normal" xml:space="preserve" text-anchor="start" font-family="'Red Hat Text'" font-size="28" id="svg_4" y="52.18013" x="20.00242" stroke-width="0" fill="#7da7eb">Ez</text>
  <path stroke="#7da7eb" stroke-width="2" id="svg_5" d="m50.1835,13.59014c-3.95969,-3.56363 -8.23042,-6.41832 -11.73375,-6.8075c-0.19072,-0.02524 -0.38825,-0.03997 -0.59713,-0.04418l-23.05654,0c-0.36781,0 -0.73109,0.13253 -0.98992,0.37866c-0.25656,0.23982 -0.40868,0.57641 -0.40868,0.91931l0,54.1697c0,0.3408 0.14304,0.66687 0.40868,0.9151c0.26564,0.24403 0.6153,0.37656 0.98992,0.37656l41.69476,0c0.36781,0 0.71974,-0.13043 0.98538,-0.37656c0.26564,-0.24613 0.41322,-0.5722 0.41322,-0.9151l0,-36.04651c-0.08174,-4.18421 -3.61912,-8.74709 -7.70595,-12.56947zm4.9042,47.31381l-38.89755,0l0,-51.57797l21.66475,0l0,0.00421c0.94451,-0.05259 1.75961,0.81202 2.38399,2.78948c0.56762,1.88279 0.71065,4.33778 0.70838,6.03966c0.00454,1.24748 -0.0613,2.08474 -0.0613,2.08474l-0.11125,1.3716l1.48942,0.01473c0.00681,0 3.44202,0.03787 6.81139,0.74681c3.23768,0.64793 5.76924,1.93959 6.00537,3.40165c0.00908,0.13043 0.01135,0.26086 0.00908,0.38287l0,34.74223l-0.00227,0z" fill="#7da7eb"/>
 </g>

</svg>